<?xml version="1.0" encoding="utf-8"?>
<!-- Generator: Adobe Illustrator 22.1.0, SVG Export Plug-In . SVG Version: 6.00 Build 0)  -->
<svg version="1.1" xmlns="http://www.w3.org/2000/svg" xmlns:xlink="http://www.w3.org/1999/xlink" x="0px" y="0px"
	 viewBox="0 0 300 300" style="enable-background:new 0 0 300 300;" xml:space="preserve">
<style type="text/css">
	.st0{fill:#FFFFFF;}
</style>
<g id="Layer_1">
</g>
<g id="Icons">
	<g>
		<path class="st0" d="M150.1,294c-79.4,0-144-64.6-144-144S70.7,6,150.1,6c79.4,0,144,64.6,144,144S229.5,294,150.1,294z M150.1,13
			c-75.5,0-137,61.4-137,137s61.4,137,137,137c75.5,0,137-61.4,137-137S225.6,13,150.1,13z"/>
		<path class="st0" d="M213.3,117.6c-4.7,2.1-9.7,3.5-14.9,4.1c5.4-3.2,9.5-8.3,11.4-14.3c-5,3-10.6,5.1-16.5,6.3
			c-4.7-5-11.5-8.2-18.9-8.2c-14.3,0-25.9,11.6-25.9,25.9c0,2,0.2,4,0.7,5.9c-21.6-1.1-40.7-11.4-53.5-27.1
			c-2.2,3.8-3.5,8.3-3.5,13.1c0,9,4.6,16.9,11.5,21.6c-4.2-0.1-8.2-1.3-11.8-3.2v0.3c0,12.6,8.9,23.1,20.8,25.4
			c-2.2,0.6-4.5,0.9-6.8,0.9c-1.7,0-3.3-0.2-4.9-0.5c3.3,10.3,12.9,17.8,24.2,18c-8.9,7-20.1,11.1-32.2,11.1c-2.1,0-4.2-0.1-6.2-0.4
			c11.5,7.4,25.1,11.6,39.8,11.6c47.7,0,73.8-39.5,73.8-73.8c0-1.1,0-2.2-0.1-3.4C205.5,127.4,209.9,122.8,213.3,117.6"/>
	</g>
</g>
</svg>
