<?xml version="1.0" encoding="utf-8"?>
<!-- Generator: Adobe Illustrator 22.1.0, SVG Export Plug-In . SVG Version: 6.00 Build 0)  -->
<svg version="1.1" xmlns="http://www.w3.org/2000/svg" xmlns:xlink="http://www.w3.org/1999/xlink" x="0px" y="0px"
	 viewBox="0 0 300 300" style="enable-background:new 0 0 300 300;" xml:space="preserve">
<style type="text/css">
	.st0{fill:#FFFFFF;}
</style>
<g id="Layer_1">
</g>
<g id="Icons">
	<g>
		<path class="st0" d="M150.1,294c-79.4,0-144-64.6-144-144S70.7,6,150.1,6c79.4,0,144,64.6,144,144S229.5,294,150.1,294z M150.1,13
			c-75.5,0-137,61.4-137,137s61.4,137,137,137s137-61.4,137-137S225.6,13,150.1,13z"/>
		<path class="st0" d="M114.7,202.4H90.1v-78.9h24.7V202.4z M101.8,113.5h-0.2c-8.9,0-14.7-6-14.7-13.7c0-7.8,6-13.7,15.1-13.7
			c9.1,0,14.7,5.9,14.9,13.7C116.8,107.5,111,113.5,101.8,113.5z M213.3,202.4h-28v-40.9c0-10.7-4.4-18-14-18
			c-7.4,0-11.4,4.9-13.3,9.7c-0.7,1.7-0.6,4.1-0.6,6.4v42.7h-27.7c0,0,0.4-72.4,0-78.9h27.7v12.4c1.6-5.4,10.5-13.1,24.6-13.1
			c17.5,0,31.3,11.3,31.3,35.8V202.4z"/>
	</g>
</g>
</svg>
