<?xml version="1.0" encoding="utf-8"?>
<!-- Generator: Adobe Illustrator 22.1.0, SVG Export Plug-In . SVG Version: 6.00 Build 0)  -->
<svg version="1.1" id="Layer_1" xmlns="http://www.w3.org/2000/svg" xmlns:xlink="http://www.w3.org/1999/xlink" x="0px" y="0px"
	 viewBox="0 0 150 150" style="enable-background:new 0 0 150 150;" xml:space="preserve">
<style type="text/css">
	.st0{fill:#FFFFFF;}
</style>
<g id="Layer_1_1_">
</g>
<path class="st0" d="M39.6,133.1H15V54.2h24.7v78.9H39.6z M26.7,44.2h-0.2c-8.9,0-14.7-6-14.7-13.7c0-7.8,6-13.7,15.1-13.7
	s14.7,5.9,14.9,13.7C41.7,38.2,35.9,44.2,26.7,44.2z M138.2,133.1h-28V92.2c0-10.7-4.4-18-14-18c-7.4,0-11.4,4.9-13.3,9.7
	c-0.7,1.7-0.6,4.1-0.6,6.4V133H54.6c0,0,0.4-72.4,0-78.9h27.7v12.4c1.6-5.4,10.5-13.1,24.6-13.1c17.5,0,31.3,11.3,31.3,35.8V133.1z"
	/>
</svg>
