<svg id="Layer_2" data-name="Layer 2" xmlns="http://www.w3.org/2000/svg" viewBox="0 0 234.14 97.7"><defs><style>.cls-1{fill:#fff;}</style></defs><title>MBM_Logo_white</title><path class="cls-1" d="M4.37,4.9H35L45,46h.19l10-41.1H85.79V74.77H65.43V30h-.2L53.1,74.77H37.05L24.92,30h-.2V74.77H4.37Z" transform="translate(-4.06 -4.9)"/><path class="cls-1" d="M89.49,4.9h38.27c18.39,0,22.31,10.37,22.31,17.51s-3.43,10.87-8.61,13.7c6.26,2.16,12.13,7.15,12.13,17.42,0,14-12.13,21.24-24.46,21.24H89.49ZM111,32.1h11.35c4.5,0,7.34-1.27,7.34-5.77,0-3.52-2.93-4.8-7.34-4.8H111Zm0,26h12.63c4.5,0,8.41-1.27,8.41-6.65,0-4.11-2.44-6.36-7.53-6.36H111Z" transform="translate(-4.06 -4.9)"/><path class="cls-1" d="M154.56,4.9h30.63l10,41.1h.2l10-41.1H236V74.77H215.63V30h-.2L203.3,74.77H187.25L175.11,30h-.19V74.77H154.56Z" transform="translate(-4.06 -4.9)"/><path class="cls-1" d="M17,101a8.67,8.67,0,0,1-2.31,1.17,8.14,8.14,0,0,1-5.19-.05,7.82,7.82,0,0,1-2.34-1.31,8.11,8.11,0,0,1-2.31-3A9.2,9.2,0,0,1,4.06,94a8.59,8.59,0,0,1,2.33-6.15,7.76,7.76,0,0,1,5.85-2.44,7.93,7.93,0,0,1,2.44.37A8.73,8.73,0,0,1,17,86.94l-.28,3.14a7,7,0,0,0-2-1.54A5,5,0,0,0,12.43,88,5.07,5.07,0,0,0,8.5,89.7,6.08,6.08,0,0,0,7,94a6,6,0,0,0,1.49,4.19,4.89,4.89,0,0,0,3.8,1.65,5.79,5.79,0,0,0,2.51-.57,9,9,0,0,0,2.41-1.81Z" transform="translate(-4.06 -4.9)"/><path class="cls-1" d="M26.22,94a9.31,9.31,0,0,1,.41-2.83,8.55,8.55,0,0,1,1.24-2.47,7.91,7.91,0,0,1,2.8-2.41,7.72,7.72,0,0,1,3.55-.86,7.58,7.58,0,0,1,3.07.64,7.68,7.68,0,0,1,2.59,1.81,8.58,8.58,0,0,1,1.74,2.78,9.6,9.6,0,0,1,0,6.68,8.34,8.34,0,0,1-1.74,2.75,8.12,8.12,0,0,1-2.61,1.83,7.5,7.5,0,0,1-3.05.65,7.42,7.42,0,0,1-3-.64,8,8,0,0,1-2.59-1.82,8.17,8.17,0,0,1-1.76-2.77A9.13,9.13,0,0,1,26.22,94Zm2.9,0a6.06,6.06,0,0,0,1.47,4.16,4.77,4.77,0,0,0,7.27,0,6.67,6.67,0,0,0,0-8.34,4.83,4.83,0,0,0-7.29,0A6.12,6.12,0,0,0,29.12,94Z" transform="translate(-4.06 -4.9)"/><path class="cls-1" d="M52.49,102.05V85.44h.3L63.16,96.19V86h2.75v16.62h-.3L55.22,91.82v10.23Z" transform="translate(-4.06 -4.9)"/><path class="cls-1" d="M83.64,88.41v13.64H80.8V88.41H75.36V86H89.05v2.45Z" transform="translate(-4.06 -4.9)"/><path class="cls-1" d="M98.52,102.05V86h3.73a14.24,14.24,0,0,1,3.08.26,5.93,5.93,0,0,1,2,.85,4.71,4.71,0,0,1,1.39,1.53,3.92,3.92,0,0,1,.5,1.91,4.33,4.33,0,0,1-.91,2.74A5.42,5.42,0,0,1,105.64,95l5.2,7.07h-3.29l-4.89-6.68H101.3v6.68Zm2.78-8.74h1.29a4.93,4.93,0,0,0,2.8-.66,2.18,2.18,0,0,0,1-1.92,2,2,0,0,0-1-1.87,5.93,5.93,0,0,0-3-.6h-1Z" transform="translate(-4.06 -4.9)"/><path class="cls-1" d="M120.75,102.05h-2.86l7.91-16.61H126l7.64,16.61h-3l-1.3-2.86h-7.31Zm2.36-5.16h5.27l-2.6-6Z" transform="translate(-4.06 -4.9)"/><path class="cls-1" d="M154.09,101a8.67,8.67,0,0,1-2.31,1.17,8.36,8.36,0,0,1-2.53.4,8.21,8.21,0,0,1-2.66-.45,7.87,7.87,0,0,1-2.35-1.31,8,8,0,0,1-2.3-3,9.05,9.05,0,0,1-.81-3.84,8.56,8.56,0,0,1,2.34-6.15,7.74,7.74,0,0,1,5.84-2.44,8,8,0,0,1,2.45.37A8.73,8.73,0,0,1,154,86.94l-.29,3.14a6.88,6.88,0,0,0-2-1.54A4.9,4.9,0,0,0,149.5,88a5.07,5.07,0,0,0-3.93,1.67A6.08,6.08,0,0,0,144,94a6,6,0,0,0,1.49,4.19,4.92,4.92,0,0,0,3.81,1.65,5.75,5.75,0,0,0,2.5-.57,8.84,8.84,0,0,0,2.41-1.81Z" transform="translate(-4.06 -4.9)"/><path class="cls-1" d="M170.75,88.41v13.64h-2.84V88.41h-5.44V86h13.68v2.45Z" transform="translate(-4.06 -4.9)"/><path class="cls-1" d="M185.67,102.05V86h2.84v16.09Z" transform="translate(-4.06 -4.9)"/><path class="cls-1" d="M200,102.05V85.44h.3l10.36,10.75V86h2.75v16.62h-.3L202.71,91.82v10.23Z" transform="translate(-4.06 -4.9)"/><path class="cls-1" d="M237.1,90.06a8.14,8.14,0,0,0-2.35-1.56,6.21,6.21,0,0,0-2.49-.52,5.43,5.43,0,0,0-4.11,1.66A6.08,6.08,0,0,0,226.57,94a5.9,5.9,0,0,0,1.58,4.28,5.48,5.48,0,0,0,4.13,1.63,7,7,0,0,0,1.47-.16,10.79,10.79,0,0,0,1.67-.52V95.85h-3.9V93.37h6.67V101a12.92,12.92,0,0,1-2.93,1.2,11.42,11.42,0,0,1-3,.41,8.61,8.61,0,1,1,0-17.21,10.17,10.17,0,0,1,2.59.34,10.83,10.83,0,0,1,2.5,1Z" transform="translate(-4.06 -4.9)"/></svg>